<svg width="298" height="298" viewBox="0 0 298 298" fill="none" xmlns="http://www.w3.org/2000/svg">
<rect width="298" height="298" rx="149" fill="#855DCD"/>
<path d="M93 70H202V225H186V154H185.843C184.075 134.377 167.583 119 147.5 119C127.417 119 110.925 134.377 109.157 154H109V225H93V70Z" fill="white"/>
<path d="M64 92L70.5 114H76V203C73.2386 203 71 205.239 71 208V214H70C67.2386 214 65 216.239 65 219V225H121V219C121 216.239 118.761 214 116 214H115V208C115 205.239 112.761 203 110 203H104V92H64Z" fill="white"/>
<path d="M187 203C184.239 203 182 205.239 182 208V214H181C178.239 214 176 216.239 176 219V225H232V219C232 216.239 229.761 214 227 214H226V208C226 205.239 223.761 203 221 203V114H226.5L233 92H193V203H187Z" fill="white"/>
</svg>
